<mxfile host="app.diagrams.net" modified="2024-03-11T14:03:30.676Z" agent="Mozilla/5.0 (Windows NT 10.0; Win64; x64) AppleWebKit/537.36 (KHTML, like Gecko) Chrome/122.0.0.0 Safari/537.36 Edg/122.0.0.0" etag="WQf-uJB6kSX0mTT06EaZ" version="24.0.4" type="google">
  <diagram name="Page-1" id="4VF21dmJ0RvNHkvZiP18">
    <mxGraphModel grid="1" page="1" gridSize="10" guides="1" tooltips="1" connect="1" arrows="1" fold="1" pageScale="1" pageWidth="827" pageHeight="1169" math="0" shadow="0">
      <root>
        <mxCell id="0" />
        <mxCell id="1" parent="0" />
        <mxCell id="tLw_TgoRC9DdgKkvzVrI-3" value="" style="edgeStyle=orthogonalEdgeStyle;rounded=0;orthogonalLoop=1;jettySize=auto;html=1;" edge="1" parent="1" source="tLw_TgoRC9DdgKkvzVrI-1" target="tLw_TgoRC9DdgKkvzVrI-2">
          <mxGeometry relative="1" as="geometry" />
        </mxCell>
        <mxCell id="tLw_TgoRC9DdgKkvzVrI-1" value="Start" style="ellipse;whiteSpace=wrap;html=1;" vertex="1" parent="1">
          <mxGeometry x="370" width="120" height="80" as="geometry" />
        </mxCell>
        <mxCell id="tLw_TgoRC9DdgKkvzVrI-7" value="" style="edgeStyle=orthogonalEdgeStyle;rounded=0;orthogonalLoop=1;jettySize=auto;html=1;" edge="1" parent="1" source="tLw_TgoRC9DdgKkvzVrI-2" target="tLw_TgoRC9DdgKkvzVrI-6">
          <mxGeometry relative="1" as="geometry" />
        </mxCell>
        <mxCell id="tLw_TgoRC9DdgKkvzVrI-2" value="Input N" style="shape=parallelogram;perimeter=parallelogramPerimeter;whiteSpace=wrap;html=1;fixedSize=1;" vertex="1" parent="1">
          <mxGeometry x="370" y="170" width="120" height="60" as="geometry" />
        </mxCell>
        <mxCell id="tLw_TgoRC9DdgKkvzVrI-9" value="" style="edgeStyle=orthogonalEdgeStyle;rounded=0;orthogonalLoop=1;jettySize=auto;html=1;" edge="1" parent="1" source="tLw_TgoRC9DdgKkvzVrI-6" target="tLw_TgoRC9DdgKkvzVrI-8">
          <mxGeometry relative="1" as="geometry" />
        </mxCell>
        <mxCell id="tLw_TgoRC9DdgKkvzVrI-6" value="f&amp;lt;--1&lt;div&gt;i&amp;lt;--2&lt;/div&gt;" style="whiteSpace=wrap;html=1;" vertex="1" parent="1">
          <mxGeometry x="370" y="310" width="120" height="60" as="geometry" />
        </mxCell>
        <mxCell id="tLw_TgoRC9DdgKkvzVrI-11" value="" style="edgeStyle=orthogonalEdgeStyle;rounded=0;orthogonalLoop=1;jettySize=auto;html=1;" edge="1" parent="1" source="tLw_TgoRC9DdgKkvzVrI-8" target="tLw_TgoRC9DdgKkvzVrI-10">
          <mxGeometry relative="1" as="geometry" />
        </mxCell>
        <mxCell id="tLw_TgoRC9DdgKkvzVrI-15" value="" style="edgeStyle=orthogonalEdgeStyle;rounded=0;orthogonalLoop=1;jettySize=auto;html=1;" edge="1" parent="1" source="tLw_TgoRC9DdgKkvzVrI-8" target="tLw_TgoRC9DdgKkvzVrI-14">
          <mxGeometry relative="1" as="geometry">
            <Array as="points">
              <mxPoint x="640" y="480" />
            </Array>
          </mxGeometry>
        </mxCell>
        <mxCell id="tLw_TgoRC9DdgKkvzVrI-8" value="i&amp;nbsp;â‰¤ N?" style="rhombus;whiteSpace=wrap;html=1;" vertex="1" parent="1">
          <mxGeometry x="350" y="440" width="160" height="80" as="geometry" />
        </mxCell>
        <mxCell id="tLw_TgoRC9DdgKkvzVrI-13" value="" style="edgeStyle=orthogonalEdgeStyle;rounded=0;orthogonalLoop=1;jettySize=auto;html=1;exitX=0;exitY=0.5;exitDx=0;exitDy=0;" edge="1" parent="1" source="tLw_TgoRC9DdgKkvzVrI-10">
          <mxGeometry relative="1" as="geometry">
            <mxPoint x="306" y="600" as="sourcePoint" />
            <mxPoint x="350" y="480" as="targetPoint" />
            <Array as="points">
              <mxPoint x="280" y="640" />
              <mxPoint x="280" y="480" />
            </Array>
          </mxGeometry>
        </mxCell>
        <mxCell id="tLw_TgoRC9DdgKkvzVrI-10" value="f=f*i&lt;div&gt;i=i+1&lt;/div&gt;" style="whiteSpace=wrap;html=1;" vertex="1" parent="1">
          <mxGeometry x="370" y="610" width="120" height="60" as="geometry" />
        </mxCell>
        <mxCell id="tLw_TgoRC9DdgKkvzVrI-17" value="" style="edgeStyle=orthogonalEdgeStyle;rounded=0;orthogonalLoop=1;jettySize=auto;html=1;" edge="1" parent="1" source="tLw_TgoRC9DdgKkvzVrI-14">
          <mxGeometry relative="1" as="geometry">
            <mxPoint x="430" y="850" as="targetPoint" />
          </mxGeometry>
        </mxCell>
        <mxCell id="tLw_TgoRC9DdgKkvzVrI-14" value="Display f" style="shape=parallelogram;perimeter=parallelogramPerimeter;whiteSpace=wrap;html=1;fixedSize=1;" vertex="1" parent="1">
          <mxGeometry x="370" y="760" width="120" height="60" as="geometry" />
        </mxCell>
        <mxCell id="tLw_TgoRC9DdgKkvzVrI-18" value="End" style="ellipse;whiteSpace=wrap;html=1;" vertex="1" parent="1">
          <mxGeometry x="370" y="850" width="120" height="80" as="geometry" />
        </mxCell>
        <mxCell id="tLw_TgoRC9DdgKkvzVrI-19" value="&lt;font style=&quot;font-size: 14px;&quot;&gt;&lt;b&gt;Prototype : f giaithua(N)&amp;nbsp;&lt;/b&gt;&lt;/font&gt;" style="text;html=1;align=center;verticalAlign=middle;whiteSpace=wrap;rounded=0;" vertex="1" parent="1">
          <mxGeometry x="120" width="210" height="120" as="geometry" />
        </mxCell>
      </root>
    </mxGraphModel>
  </diagram>
</mxfile>
